<?xml version="1.0" encoding="UTF-8" standalone="no"?>
<svg xmlns="http://www.w3.org/2000/svg" xmlns:xlink="http://www.w3.org/1999/xlink" width="176" height="176" viewBox="0 0 176 176">
<!-- Generated by SVGExport for AutoCAD - ARKANCE, cadforum.cz, 2026 -->
<!-- Calculated Scale: 1:1 -->
  <rect width="176" height="176" fill="white" />
  <line x1="88" y1="88" x2="88" y2="168" fill="none" stroke="#808080" stroke-width="0.5" />
  <line x1="88" y1="88" x2="88" y2="8" fill="none" stroke="#808080" stroke-width="0.5" />
  <line x1="88" y1="88" x2="168" y2="88" fill="none" stroke="#808080" stroke-width="0.5" />
  <line x1="88" y1="88" x2="8" y2="88" fill="none" stroke="#808080" stroke-width="0.5" />
  <line x1="88" y1="88" x2="168" y2="168" fill="none" stroke="#808080" stroke-width="0.5" />
  <line x1="18" y1="18" x2="78" y2="18" fill="none" stroke="#0000ff" stroke-width="0.5" />
  <line x1="68" y1="28" x2="68" y2="78" fill="none" stroke="#0000ff" stroke-width="0.5" />
  <line x1="68" y1="78" x2="58" y2="78" fill="none" stroke="#0000ff" stroke-width="0.5" />
  <line x1="28" y1="78" x2="28" y2="28" fill="none" stroke="#0000ff" stroke-width="0.5" />
  <line x1="38" y1="78" x2="38" y2="38" fill="none" stroke="#0000ff" stroke-width="0.5" />
  <line x1="38" y1="38" x2="58" y2="38" fill="none" stroke="#0000ff" stroke-width="0.5" />
  <line x1="58" y1="38" x2="58" y2="78" fill="none" stroke="#0000ff" stroke-width="0.5" />
  <line x1="38" y1="78" x2="28" y2="78" fill="none" stroke="#0000ff" stroke-width="0.5" />
  <line x1="18" y1="98" x2="78" y2="98" fill="none" stroke="#0000ff" stroke-width="0.5" />
  <line x1="78" y1="98" x2="78" y2="158" fill="none" stroke="#0000ff" stroke-width="0.5" />
  <line x1="78" y1="158" x2="18" y2="158" fill="none" stroke="#0000ff" stroke-width="0.5" />
  <line x1="18" y1="158" x2="18" y2="98" fill="none" stroke="#0000ff" stroke-width="0.5" />
  <line x1="18" y1="18" x2="18" y2="28" fill="none" stroke="#0000ff" stroke-width="0.5" />
  <line x1="18" y1="28" x2="28" y2="28" fill="none" stroke="#0000ff" stroke-width="0.5" />
  <line x1="78" y1="18" x2="78" y2="28" fill="none" stroke="#0000ff" stroke-width="0.5" />
  <line x1="78" y1="28" x2="68" y2="28" fill="none" stroke="#0000ff" stroke-width="0.5" />
  <line x1="28" y1="28" x2="68" y2="28" fill="none" stroke="#0000ff" stroke-width="0.5" />
  <line x1="28" y1="38" x2="38" y2="38" fill="none" stroke="#00ffff" stroke-width="0.5" />
  <line x1="38" y1="38" x2="38" y2="28" fill="none" stroke="#00ffff" stroke-width="0.5" />
  <line x1="68" y1="38" x2="58" y2="38" fill="none" stroke="#00ffff" stroke-width="0.5" />
  <line x1="58" y1="38" x2="58" y2="28" fill="none" stroke="#00ffff" stroke-width="0.5" />
  <line x1="28" y1="118" x2="28" y2="108" fill="none" stroke="#00ffff" stroke-width="0.5" />
  <line x1="28" y1="108" x2="38" y2="108" fill="none" stroke="#00ffff" stroke-width="0.5" />
  <line x1="38" y1="108" x2="58" y2="108" fill="none" stroke="#00ffff" stroke-width="0.5" />
  <line x1="58" y1="108" x2="68" y2="108" fill="none" stroke="#00ffff" stroke-width="0.5" />
  <line x1="68" y1="108" x2="68" y2="118" fill="none" stroke="#00ffff" stroke-width="0.5" />
  <line x1="68" y1="118" x2="68" y2="138" fill="none" stroke="#00ffff" stroke-width="0.5" />
  <line x1="68" y1="138" x2="68" y2="148" fill="none" stroke="#00ffff" stroke-width="0.5" />
  <line x1="68" y1="148" x2="58" y2="148" fill="none" stroke="#00ffff" stroke-width="0.5" />
  <line x1="58" y1="148" x2="38" y2="148" fill="none" stroke="#00ffff" stroke-width="0.5" />
  <line x1="38" y1="148" x2="28" y2="148" fill="none" stroke="#00ffff" stroke-width="0.5" />
  <line x1="28" y1="148" x2="28" y2="138" fill="none" stroke="#00ffff" stroke-width="0.5" />
  <line x1="28" y1="138" x2="28" y2="118" fill="none" stroke="#00ffff" stroke-width="0.5" />
  <line x1="28" y1="118" x2="38" y2="118" fill="none" stroke="#00ffff" stroke-width="0.5" />
  <line x1="38" y1="118" x2="38" y2="108" fill="none" stroke="#00ffff" stroke-width="0.5" />
  <line x1="58" y1="108" x2="58" y2="118" fill="none" stroke="#00ffff" stroke-width="0.5" />
  <line x1="58" y1="118" x2="68" y2="118" fill="none" stroke="#00ffff" stroke-width="0.5" />
  <line x1="58" y1="118" x2="58" y2="138" fill="none" stroke="#00ffff" stroke-width="0.5" />
  <line x1="58" y1="138" x2="68" y2="138" fill="none" stroke="#00ffff" stroke-width="0.5" />
  <line x1="58" y1="148" x2="58" y2="138" fill="none" stroke="#00ffff" stroke-width="0.5" />
  <line x1="58" y1="138" x2="38" y2="138" fill="none" stroke="#00ffff" stroke-width="0.5" />
  <line x1="38" y1="138" x2="38" y2="148" fill="none" stroke="#00ffff" stroke-width="0.5" />
  <line x1="28" y1="138" x2="38" y2="138" fill="none" stroke="#00ffff" stroke-width="0.5" />
  <line x1="38" y1="138" x2="38" y2="118" fill="none" stroke="#00ffff" stroke-width="0.5" />
  <line x1="38" y1="118" x2="58" y2="118" fill="none" stroke="#00ffff" stroke-width="0.5" />
  <line x1="98" y1="18" x2="158" y2="18" fill="none" stroke="#0000ff" stroke-width="0.5" />
  <line x1="148" y1="28" x2="148" y2="78" fill="none" stroke="#0000ff" stroke-width="0.5" />
  <line x1="148" y1="78" x2="138" y2="78" fill="none" stroke="#0000ff" stroke-width="0.5" />
  <line x1="108" y1="78" x2="108" y2="28" fill="none" stroke="#0000ff" stroke-width="0.5" />
  <line x1="118" y1="78" x2="118" y2="38" fill="none" stroke="#0000ff" stroke-width="0.5" />
  <line x1="118" y1="38" x2="138" y2="38" fill="none" stroke="#0000ff" stroke-width="0.5" />
  <line x1="138" y1="38" x2="138" y2="78" fill="none" stroke="#0000ff" stroke-width="0.5" />
  <line x1="118" y1="78" x2="108" y2="78" fill="none" stroke="#0000ff" stroke-width="0.5" />
  <line x1="98" y1="18" x2="98" y2="28" fill="none" stroke="#0000ff" stroke-width="0.5" />
  <line x1="98" y1="28" x2="108" y2="28" fill="none" stroke="#0000ff" stroke-width="0.5" />
  <line x1="158" y1="18" x2="158" y2="28" fill="none" stroke="#0000ff" stroke-width="0.5" />
  <line x1="158" y1="28" x2="148" y2="28" fill="none" stroke="#0000ff" stroke-width="0.5" />
  <line x1="108" y1="28" x2="148" y2="28" fill="none" stroke="#0000ff" stroke-width="0.5" />
  <line x1="108" y1="38" x2="118" y2="38" fill="none" stroke="#00ffff" stroke-width="0.5" />
  <line x1="118" y1="38" x2="118" y2="28" fill="none" stroke="#00ffff" stroke-width="0.5" />
  <line x1="148" y1="38" x2="138" y2="38" fill="none" stroke="#00ffff" stroke-width="0.5" />
  <line x1="138" y1="38" x2="138" y2="28" fill="none" stroke="#00ffff" stroke-width="0.5" />
</svg>
